<?xml version="1.0" encoding="UTF-8" standalone="no"?>
<svg
   xmlns:dc="http://purl.org/dc/elements/1.1/"
   xmlns:cc="http://creativecommons.org/ns#"
   xmlns:rdf="http://www.w3.org/1999/02/22-rdf-syntax-ns#"
   xmlns:svg="http://www.w3.org/2000/svg"
   xmlns="http://www.w3.org/2000/svg"
   viewBox="0 0 666.66669 400"
   height="400"
   width="666.66669"
   xml:space="preserve"
   id="svg2"
   version="1.1"><metadata
     id="metadata8"><rdf:RDF><cc:Work
         rdf:about=""><dc:format>image/svg+xml</dc:format><dc:type
           rdf:resource="http://purl.org/dc/dcmitype/StillImage" /></cc:Work></rdf:RDF></metadata><defs
     id="defs6" /><g
     transform="matrix(1.3333333,0,0,-1.3333333,0,400)"
     id="g10"><g
       transform="scale(0.1)"
       id="g12"><path
         id="path14"
         style="fill:#efeeee;fill-opacity:1;fill-rule:nonzero;stroke:none"
         d="M 0,3000 H 2041.43 L 909.961,2725.45 Z" /><path
         id="path16"
         style="fill:#efeeee;fill-opacity:1;fill-rule:nonzero;stroke:none"
         d="m 2041.43,3000 h 1604.4 l -568.72,-850.56 z" /><path
         id="path18"
         style="fill:#dcdbdb;fill-opacity:1;fill-rule:nonzero;stroke:none"
         d="M 0,1503.45 706.418,2655.47 0,3000 Z" /><path
         id="path20"
         style="fill:#e1e0e0;fill-opacity:1;fill-rule:nonzero;stroke:none"
         d="M 706.418,2655.47 886.016,1799.53 0,1503.45 Z" /><path
         id="path22"
         style="fill:#e9e8e8;fill-opacity:1;fill-rule:nonzero;stroke:none"
         d="M 706.418,2655.47 1484.67,2031.01 886.016,1799.53 Z" /><path
         id="path24"
         style="fill:#e2e1e1;fill-opacity:1;fill-rule:nonzero;stroke:none"
         d="M 0,1503.45 850.098,1153.53 389.129,728.25 Z" /><path
         id="path26"
         style="fill:#f6f5f5;fill-opacity:1;fill-rule:nonzero;stroke:none"
         d="M 0,1503.45 V 0 l 389.129,728.25 z" /><path
         id="path28"
         style="fill:#eeedee;fill-opacity:1;fill-rule:nonzero;stroke:none"
         d="m 886.016,1799.53 -35.918,-646 L 0,1503.45 Z" /><path
         id="path30"
         style="fill:#efefef;fill-opacity:1;fill-rule:nonzero;stroke:none"
         d="M 389.129,728.25 850.098,491.391 0,0 Z" /><path
         id="path32"
         style="fill:#f3f3f3;fill-opacity:1;fill-rule:nonzero;stroke:none"
         d="M 850.098,1153.53 V 491.391 L 389.129,728.25 Z" /><path
         id="path34"
         style="fill:#dbdada;fill-opacity:1;fill-rule:nonzero;stroke:none"
         d="M 850.098,491.391 1155.41,0 H 0 Z" /><path
         id="path36"
         style="fill:#d3d2d2;fill-opacity:1;fill-rule:nonzero;stroke:none"
         d="m 850.098,491.391 796.212,-323 329.26,-64.602 L 1155.41,0 850.098,491.391" /><path
         id="path38"
         style="fill:#ebebeb;fill-opacity:1;fill-rule:nonzero;stroke:none"
         d="M 850.098,491.391 1323.04,751.719 1655.45,166.602 Z" /><path
         id="path40"
         style="fill:#e2e1e1;fill-opacity:1;fill-rule:nonzero;stroke:none"
         d="M 909.961,2725.45 1484.67,2558.57 2041.43,3000 Z" /><path
         id="path42"
         style="fill:#dbdada;fill-opacity:1;fill-rule:nonzero;stroke:none"
         d="M 1484.67,2558.57 1680.6,2364.77 2041.43,3000 Z" /><path
         id="path44"
         style="fill:#d6d5d5;fill-opacity:1;fill-rule:nonzero;stroke:none"
         d="M 1680.6,2364.77 3077.11,2149.44 2041.43,3000 Z" /><path
         id="path46"
         style="fill:#e9e8e8;fill-opacity:1;fill-rule:nonzero;stroke:none"
         d="m 3645.83,3000 155.65,-532.95 -724.37,-317.61 z" /><path
         id="path48"
         style="fill:#dad9d9;fill-opacity:1;fill-rule:nonzero;stroke:none"
         d="M 3077.11,2149.44 2843.63,1751.08 1680.6,2364.77 Z" /><path
         id="path50"
         style="fill:#e0dfe0;fill-opacity:1;fill-rule:nonzero;stroke:none"
         d="m 2843.63,1751.08 682.47,425.28 -448.99,-26.92 z" /><path
         id="path52"
         style="fill:#efeeee;fill-opacity:1;fill-rule:nonzero;stroke:none"
         d="m 3526.1,2176.36 275.38,290.69 -724.37,-317.61 z" /><path
         id="path54"
         style="fill:#e6e6e6;fill-opacity:1;fill-rule:nonzero;stroke:none"
         d="m 3526.1,2176.36 772.27,-462.97 -1454.74,37.69 z" /><path
         id="path56"
         style="fill:#d7d7d7;fill-opacity:1;fill-rule:nonzero;stroke:none"
         d="m 2041.43,959.73 119.73,613.7 682.47,177.65 z" /><path
         id="path58"
         style="fill:#d9d8d9;fill-opacity:1;fill-rule:nonzero;stroke:none"
         d="M 886.016,1799.53 1412.83,932.82 850.098,1153.53 Z" /><path
         id="path60"
         style="fill:#e0dfe0;fill-opacity:1;fill-rule:nonzero;stroke:none"
         d="M 1484.67,2031.01 1412.83,932.82 886.016,1799.53 Z" /><path
         id="path62"
         style="fill:#e8e7e7;fill-opacity:1;fill-rule:nonzero;stroke:none"
         d="M 1484.67,2031.01 2161.16,1573.43 1412.83,932.82 Z" /><path
         id="path64"
         style="fill:#eaeaea;fill-opacity:1;fill-rule:nonzero;stroke:none"
         d="m 1412.83,932.82 628.6,26.91 119.73,613.7 z" /><path
         id="path66"
         style="fill:#e3e3e3;fill-opacity:1;fill-rule:nonzero;stroke:none"
         d="m 1484.67,2031.01 v 527.56 l 676.49,-985.14 z" /><path
         id="path68"
         style="fill:#f8f8f8;fill-opacity:1;fill-rule:nonzero;stroke:none"
         d="m 1484.67,2031.01 v 527.56 L 0,3000 706.418,2655.47 1484.67,2031.01" /><path
         id="path70"
         style="fill:#f7f7f7;fill-opacity:1;fill-rule:nonzero;stroke:none"
         d="M 3645.83,3000 4298.37,2779.29 5000,3000 Z" /><path
         id="path72"
         style="fill:#d3d2d2;fill-opacity:1;fill-rule:nonzero;stroke:none"
         d="M 5000,0 4669.54,456.691 5000,1713.39 Z" /><path
         id="path74"
         style="fill:#efefef;fill-opacity:1;fill-rule:nonzero;stroke:none"
         d="M 2843.63,1751.08 3214.8,456.691 2041.43,959.73 Z" /><path
         id="path76"
         style="fill:#eeedee;fill-opacity:1;fill-rule:nonzero;stroke:none"
         d="M 1323.04,751.719 2041.43,959.73 1655.45,166.602 Z" /><path
         id="path78"
         style="fill:#f5f4f5;fill-opacity:1;fill-rule:nonzero;stroke:none"
         d="m 1323.04,751.719 89.79,181.101 628.6,26.91 z" /><path
         id="path80"
         style="fill:#f2f2f2;fill-opacity:1;fill-rule:nonzero;stroke:none"
         d="M 850.098,1153.53 V 491.391 l 472.942,260.328 89.79,181.101 -562.732,220.71" /><path
         id="path82"
         style="fill:#e3e3e3;fill-opacity:1;fill-rule:nonzero;stroke:none"
         d="m 2041.43,959.73 -65.86,-855.941 -320.12,62.813 z" /><path
         id="path84"
         style="fill:#f8f8f8;fill-opacity:1;fill-rule:nonzero;stroke:none"
         d="M 2041.43,959.73 3023.23,189.922 1975.57,103.789 Z" /><path
         id="path86"
         style="fill:#f6f6f6;fill-opacity:1;fill-rule:nonzero;stroke:none"
         d="M 2843.63,1751.08 3693.73,900.52 3214.8,456.691 Z" /><path
         id="path88"
         style="fill:#efefef;fill-opacity:1;fill-rule:nonzero;stroke:none"
         d="m 4298.37,1713.39 -604.64,-812.87 -850.1,850.56 z" /><path
         id="path90"
         style="fill:#f0f0f0;fill-opacity:1;fill-rule:nonzero;stroke:none"
         d="M 3693.73,900.52 4088.84,560.699 3603.93,195.309 3214.8,456.691 3693.73,900.52" /><path
         id="path92"
         style="fill:#e6e6e6;fill-opacity:1;fill-rule:nonzero;stroke:none"
         d="M 3214.8,456.691 3023.23,189.922 2041.43,959.73 Z" /><path
         id="path94"
         style="fill:#e9e8e8;fill-opacity:1;fill-rule:nonzero;stroke:none"
         d="m 1155.41,0 h 1873.8 L 1975.57,103.789 Z" /><path
         id="path96"
         style="fill:#dbdada;fill-opacity:1;fill-rule:nonzero;stroke:none"
         d="M 3023.23,189.922 2969.35,0 1975.57,103.789 Z" /><path
         id="path98"
         style="fill:#dddddd;fill-opacity:1;fill-rule:nonzero;stroke:none"
         d="M 2969.35,0 3603.93,195.309 3214.8,456.691 3023.23,189.922 2969.35,0" /><path
         id="path100"
         style="fill:#cdcccc;fill-opacity:1;fill-rule:nonzero;stroke:none"
         d="M 2969.35,0 3603.93,195.309 5000,0 Z" /><path
         id="path102"
         style="fill:#c7c6c6;fill-opacity:1;fill-rule:nonzero;stroke:none"
         d="M 3603.93,195.309 4669.54,456.691 5000,0 Z" /><path
         id="path104"
         style="fill:#e6e6e6;fill-opacity:1;fill-rule:nonzero;stroke:none"
         d="M 4088.84,560.699 3603.93,195.309 4669.54,456.691 Z" /><path
         id="path106"
         style="fill:#f5f4f5;fill-opacity:1;fill-rule:nonzero;stroke:none"
         d="M 4088.84,560.699 4549.81,728.25 4669.54,456.691 Z" /><path
         id="path108"
         style="fill:#efefef;fill-opacity:1;fill-rule:nonzero;stroke:none"
         d="M 4298.37,1713.39 H 5000 L 4669.54,456.691 4549.81,728.25 4298.37,1713.39" /><path
         id="path110"
         style="fill:#eeedee;fill-opacity:1;fill-rule:nonzero;stroke:none"
         d="m 3526.1,2176.36 646.55,-26.92 125.72,-436.05 z" /><path
         id="path112"
         style="fill:#e6e6e6;fill-opacity:1;fill-rule:nonzero;stroke:none"
         d="M 4172.65,2149.44 5000,1713.39 h -701.63 z" /><path
         id="path114"
         style="fill:#f0f0f0;fill-opacity:1;fill-rule:nonzero;stroke:none"
         d="m 706.418,2655.47 778.252,-96.9 v -527.56 z" /><path
         id="path116"
         style="fill:#f8f8f8;fill-opacity:1;fill-rule:nonzero;stroke:none"
         d="m 4172.65,2149.44 53.88,409.13 773.47,-845.18 z" /><path
         id="path118"
         style="fill:#f1f1f1;fill-opacity:1;fill-rule:nonzero;stroke:none"
         d="M 4226.53,2558.57 5000,3000 V 1713.39 Z" /><path
         id="path120"
         style="fill:#fbfbfb;fill-opacity:1;fill-rule:nonzero;stroke:none"
         d="M 3801.48,2467.05 4298.37,2779.29 3645.83,3000 Z" /><path
         id="path122"
         style="fill:#f5f4f5;fill-opacity:1;fill-rule:nonzero;stroke:none"
         d="m 4226.53,2558.57 -425.05,-91.52 -275.38,-290.69 646.55,-26.92 53.88,409.13" /><path
         id="path124"
         style="fill:#f0f0f0;fill-opacity:1;fill-rule:nonzero;stroke:none"
         d="M 3693.73,900.52 4549.81,728.25 4088.84,560.699 Z" /><path
         id="path126"
         style="fill:#fafafa;fill-opacity:1;fill-rule:nonzero;stroke:none"
         d="m 3693.73,900.52 604.64,812.87 251.44,-985.14 z" /><path
         id="path128"
         style="fill:#fafafa;fill-opacity:1;fill-rule:nonzero;stroke:none"
         d="M 3801.48,2467.05 4298.37,2779.29 5000,3000 4226.53,2558.57 3801.48,2467.05" /><path
         id="path130"
         style="fill:#f0f0f0;fill-opacity:1;fill-rule:nonzero;stroke:none"
         d="m 1484.67,2558.57 195.93,-193.8 1163.03,-613.69 -682.47,-177.65 -676.49,985.14" /></g></g></svg>